<?xml version="1.0" encoding="utf-8"?>
<!-- Generator: Adobe Illustrator 25.2.1, SVG Export Plug-In . SVG Version: 6.00 Build 0)  -->
<svg version="1.1" id="Layer_2" xmlns="http://www.w3.org/2000/svg" xmlns:xlink="http://www.w3.org/1999/xlink" x="0px" y="0px"
	 viewBox="0 0 1080 1080" style="enable-background:new 0 0 1080 1080;" xml:space="preserve">
<style type="text/css">
	.st0{fill:url(#SVGID_1_);}
	.st1{fill:url(#SVGID_2_);}
	.st2{fill:url(#SVGID_3_);}
	.st3{fill:#1C4532;}
	.st4{fill:#2F855A;}
	.st5{fill:#48BB78;}
</style>
<g>
	<linearGradient id="SVGID_1_" gradientUnits="userSpaceOnUse" x1="756.7053" y1="163.2416" x2="1072.489" y2="163.2416">
		<stop  offset="0" style="stop-color:#68D391"/>
		<stop  offset="0.0639" style="stop-color:#57C684"/>
		<stop  offset="0.1358" style="stop-color:#4CBE7B"/>
		<stop  offset="0.2125" style="stop-color:#48BB78"/>
		<stop  offset="0.4493" style="stop-color:#2F855A"/>
		<stop  offset="0.7487" style="stop-color:#276749"/>
		<stop  offset="0.9706" style="stop-color:#1C4532"/>
	</linearGradient>
	<polygon class="st0" points="1072.49,5.35 1072.49,321.13 880.06,321.13 880.06,197.78 756.71,197.78 756.71,5.35 	"/>
	<linearGradient id="SVGID_2_" gradientUnits="userSpaceOnUse" x1="1.0548" y1="916.4293" x2="317.2393" y2="916.4293">
		<stop  offset="0" style="stop-color:#68D391"/>
		<stop  offset="0.0639" style="stop-color:#57C684"/>
		<stop  offset="0.1358" style="stop-color:#4CBE7B"/>
		<stop  offset="0.2125" style="stop-color:#48BB78"/>
		<stop  offset="0.4493" style="stop-color:#2F855A"/>
		<stop  offset="0.7487" style="stop-color:#276749"/>
		<stop  offset="0.9706" style="stop-color:#1C4532"/>
	</linearGradient>
	<polygon class="st1" points="1.05,1073.99 316.84,1074.65 317.24,882.22 193.89,881.96 194.15,758.61 1.71,758.21 	"/>
	<linearGradient id="SVGID_3_" gradientUnits="userSpaceOnUse" x1="1" y1="540" x2="1079" y2="540">
		<stop  offset="0" style="stop-color:#68D391"/>
		<stop  offset="0.0639" style="stop-color:#57C684"/>
		<stop  offset="0.1358" style="stop-color:#4CBE7B"/>
		<stop  offset="0.2125" style="stop-color:#48BB78"/>
		<stop  offset="0.4493" style="stop-color:#2F855A"/>
		<stop  offset="0.7487" style="stop-color:#276749"/>
		<stop  offset="0.9706" style="stop-color:#1C4532"/>
	</linearGradient>
	<path class="st2" d="M439.99,321.13h194.16c-1.68-34.23-10.18-106.47-60.04-176.37C485.08,19.93,338.63,6.96,316.24,5.35
		c-105.06,0-210.12,0-315.19,0c0,102.1,0,204.2,0,306.31c-0.41,18.93-1.05,146.64,102.57,239.48
		c87.93,78.78,191.26,78.98,214.74,78.44c152.2,4.27,304.4,8.53,456.61,12.8c8.02,1.49,52.09,10.47,79.37,52.26
		c21.1,32.32,19.68,65.14,18.77,75.76c0.04,36.98,0.09,73.97,0.13,110.95c-23.47,5.58-60.34,11.51-104.86,6.35
		c-28.41-3.29-53.24-6.17-76.9-22.35c-46.2-31.61-53.67-90.55-55.21-107.14H437.16c0,0,11.37,283.58,275.95,316.44
		c119.23-0.08,238.46-0.17,357.7-0.25c3.57-32.4,7.61-79.97,7.97-137.53c1.01-161.36,1.77-282.85-71.29-371.3
		c-21.46-25.98-83.36-90.36-221.83-108.82l-499.28-12.8c-15.04-3.21-39.48-10.83-59.41-31.17c-28.41-29-31.5-67.35-35.42-116.01
		c-1.79-22.24-2.59-54.64,3.08-93.92h134.42C329.04,202.84,439.99,208.99,439.99,321.13z"/>
</g>
</svg>